<?xml version="1.0" encoding="UTF-8"?>
<!DOCTYPE svg PUBLIC "-//W3C//DTD SVG 1.1//EN" "http://www.w3.org/Graphics/SVG/1.1/DTD/svg11.dtd">
<svg xmlns="http://www.w3.org/2000/svg" version="1.1" width="500px" height="500px" style="shape-rendering:geometricPrecision; text-rendering:geometricPrecision; image-rendering:optimizeQuality; fill-rule:evenodd; clip-rule:evenodd" xmlns:xlink="http://www.w3.org/1999/xlink">
<g><path style="opacity:0.527" fill="#bebfc0" d="M 264.5,135.5 C 255.148,135.434 245.815,135.768 236.5,136.5C 241.925,135.016 247.591,134.349 253.5,134.5C 257.349,134.501 261.016,134.835 264.5,135.5 Z"/></g>
<g><path style="opacity:1" fill="#7a7b7d" d="M 214.5,134.5 C 217.187,134.336 219.854,134.503 222.5,135C 223.103,136.825 223.77,138.659 224.5,140.5C 225.107,140.376 225.44,140.043 225.5,139.5C 228.986,137.894 232.653,136.894 236.5,136.5C 245.815,135.768 255.148,135.434 264.5,135.5C 264.833,135.5 265.167,135.5 265.5,135.5C 266.641,136.339 267.974,137.006 269.5,137.5C 270.172,138.949 270.839,140.282 271.5,141.5C 274.781,141.42 277.781,142.087 280.5,143.5C 282.515,144.924 284.848,145.59 287.5,145.5C 290.131,148.337 293.465,149.67 297.5,149.5C 297.937,151.074 298.937,152.241 300.5,153C 305.147,154.33 309.48,156.163 313.5,158.5C 313.511,160.017 314.177,161.184 315.5,162C 318.642,164.469 321.809,166.969 325,169.5C 325.483,170.448 325.649,171.448 325.5,172.5C 325.167,172.5 324.833,172.5 324.5,172.5C 322.235,172.441 321.902,173.274 323.5,175C 325.673,178.338 328.339,181.171 331.5,183.5C 331.343,184.873 331.51,186.207 332,187.5C 334.942,192.406 338.109,197.072 341.5,201.5C 342.785,208.592 344.452,215.592 346.5,222.5C 346.5,226.5 346.5,230.5 346.5,234.5C 346.75,239.58 346.25,244.58 345,249.5C 342.957,247.792 341.29,245.792 340,243.5C 340.249,248.68 338.915,253.347 336,257.5C 334.237,254.98 332.237,252.647 330,250.5C 328.114,253.242 325.614,254.909 322.5,255.5C 321.795,262.534 318.128,267.201 311.5,269.5C 302.5,269.5 293.5,269.5 284.5,269.5C 284.5,268.833 284.5,268.167 284.5,267.5C 284.5,267.167 284.5,266.833 284.5,266.5C 286.487,263.141 286.987,259.475 286,255.5C 285.363,253.697 284.197,252.364 282.5,251.5C 274.268,253.26 265.935,254.26 257.5,254.5C 257.693,258.566 257.36,262.566 256.5,266.5C 255.833,266.5 255.167,266.5 254.5,266.5C 256.092,263.034 256.758,259.367 256.5,255.5C 238.666,256.697 221.166,255.031 204,250.5C 203.536,251.094 203.369,251.761 203.5,252.5C 202.735,255.096 202.401,257.763 202.5,260.5C 201.167,265.167 198.167,268.167 193.5,269.5C 184.833,269.5 176.167,269.5 167.5,269.5C 167.918,268.778 168.584,268.278 169.5,268C 167.292,267.809 165.292,267.309 163.5,266.5C 164.978,266.762 166.311,266.429 167.5,265.5C 171.884,257.798 171.384,250.465 166,243.5C 162.554,239.452 158.554,236.118 154,233.5C 153.09,240.204 151.59,245.871 149.5,250.5C 149.665,247.15 149.498,243.817 149,240.5C 146.015,237.838 143.515,234.838 141.5,231.5C 139.761,228.757 137.427,226.757 134.5,225.5C 133.508,225.672 132.842,225.338 132.5,224.5C 132.389,223.883 132.056,223.383 131.5,223C 140.812,222.031 149.646,223.531 158,227.5C 158.839,224.86 158.339,222.527 156.5,220.5C 156.833,220.167 157.167,219.833 157.5,219.5C 159.751,220.695 162.085,221.695 164.5,222.5C 167.509,218.374 166.842,214.874 162.5,212C 166.554,212.55 170.554,213.384 174.5,214.5C 173.998,208.655 171.332,204.155 166.5,201C 169.777,199.857 173.11,199.023 176.5,198.5C 175.661,187.009 170.327,178.342 160.5,172.5C 161.496,172.586 162.329,172.252 163,171.5C 164.772,167.687 165.605,163.687 165.5,159.5C 157.02,157.906 150.687,160.906 146.5,168.5C 137.615,168.072 130.115,171.072 124,177.5C 123.667,174.833 123.333,172.167 123,169.5C 122.329,168.748 121.496,168.414 120.5,168.5C 120.611,167.883 120.944,167.383 121.5,167C 119.365,166.124 118.031,164.624 117.5,162.5C 119.754,163.124 121.421,164.457 122.5,166.5C 123.946,167.613 125.613,167.78 127.5,167C 133.876,164.38 140.209,161.88 146.5,159.5C 163.658,153.778 180.658,147.445 197.5,140.5C 203.363,138.88 209.03,136.88 214.5,134.5 Z"/></g>
<g><path style="opacity:0.425" fill="#d9d9da" d="M 214.5,134.5 C 217.625,133.521 220.958,133.187 224.5,133.5C 224.205,135.735 224.539,137.735 225.5,139.5C 225.44,140.043 225.107,140.376 224.5,140.5C 223.77,138.659 223.103,136.825 222.5,135C 219.854,134.503 217.187,134.336 214.5,134.5 Z"/></g>
<g><path style="opacity:0.757" fill="#b8b8b9" d="M 214.5,134.5 C 209.03,136.88 203.363,138.88 197.5,140.5C 202.667,137.332 208.334,135.332 214.5,134.5 Z"/></g>
<g><path style="opacity:0.769" fill="#c7c7c8" d="M 265.5,135.5 C 268.471,135.435 271.138,136.269 273.5,138C 272.177,138.816 271.511,139.983 271.5,141.5C 270.839,140.282 270.172,138.949 269.5,137.5C 267.974,137.006 266.641,136.339 265.5,135.5 Z"/></g>
<g><path style="opacity:0.012" fill="#dedfdf" d="M 280.5,143.5 C 283.152,143.41 285.485,144.076 287.5,145.5C 284.848,145.59 282.515,144.924 280.5,143.5 Z"/></g>
<g><path style="opacity:0.961" fill="#bbbbbd" d="M 287.5,145.5 C 291.116,146.314 294.449,147.648 297.5,149.5C 293.465,149.67 290.131,148.337 287.5,145.5 Z"/></g>
<g><path style="opacity:0.125" fill="#d3d3d4" d="M 297.5,149.5 C 303.489,151.491 308.823,154.491 313.5,158.5C 309.48,156.163 305.147,154.33 300.5,153C 298.937,152.241 297.937,151.074 297.5,149.5 Z"/></g>
<g><path style="opacity:1" fill="#161614" d="M 160.5,172.5 C 156.013,170.545 151.346,169.212 146.5,168.5C 150.687,160.906 157.02,157.906 165.5,159.5C 165.605,163.687 164.772,167.687 163,171.5C 162.329,172.252 161.496,172.586 160.5,172.5 Z"/></g>
<g><path style="opacity:0.6" fill="#b5b4b3" d="M 117.5,162.5 C 114.482,162.335 111.482,162.502 108.5,163C 107.594,164.699 107.261,166.533 107.5,168.5C 106.021,165.857 106.354,163.357 108.5,161C 111.817,160.219 114.817,160.719 117.5,162.5 Z"/></g>
<g><path style="opacity:1" fill="#1c1b1a" d="M 117.5,162.5 C 118.031,164.624 119.365,166.124 121.5,167C 120.944,167.383 120.611,167.883 120.5,168.5C 116.833,170.5 113.167,172.5 109.5,174.5C 107.926,172.898 107.259,170.898 107.5,168.5C 107.261,166.533 107.594,164.699 108.5,163C 111.482,162.502 114.482,162.335 117.5,162.5 Z"/></g>
<g><path style="opacity:0.675" fill="#bfbfc1" d="M 146.5,159.5 C 140.209,161.88 133.876,164.38 127.5,167C 125.613,167.78 123.946,167.613 122.5,166.5C 130.31,163.547 138.31,161.214 146.5,159.5 Z"/></g>
<g><path style="opacity:0.427" fill="#d0d1d1" d="M 313.5,158.5 C 319.191,161.678 324.191,165.845 328.5,171C 327.756,172.039 326.756,172.539 325.5,172.5C 325.649,171.448 325.483,170.448 325,169.5C 321.809,166.969 318.642,164.469 315.5,162C 314.177,161.184 313.511,160.017 313.5,158.5 Z"/></g>
<g><path style="opacity:1" fill="#dbdad8" d="M 120.5,168.5 C 121.496,168.414 122.329,168.748 123,169.5C 123.333,172.167 123.667,174.833 124,177.5C 130.115,171.072 137.615,168.072 146.5,168.5C 151.346,169.212 156.013,170.545 160.5,172.5C 170.327,178.342 175.661,187.009 176.5,198.5C 173.11,199.023 169.777,199.857 166.5,201C 171.332,204.155 173.998,208.655 174.5,214.5C 170.554,213.384 166.554,212.55 162.5,212C 166.842,214.874 167.509,218.374 164.5,222.5C 162.085,221.695 159.751,220.695 157.5,219.5C 157.167,219.833 156.833,220.167 156.5,220.5C 158.339,222.527 158.839,224.86 158,227.5C 149.646,223.531 140.812,222.031 131.5,223C 132.056,223.383 132.389,223.883 132.5,224.5C 128.896,223.755 125.229,223.922 121.5,225C 112.833,225.667 104.167,225.667 95.5,225C 91.2007,224.741 87.534,223.241 84.5,220.5C 89.3634,218.443 92.0301,214.776 92.5,209.5C 88.4862,209.334 84.4862,209.501 80.5,210C 78.5743,210.422 77.5743,211.589 77.5,213.5C 76.4265,212.749 76.2599,211.749 77,210.5C 85.4788,202.598 94.1455,194.932 103,187.5C 104.126,182.582 106.292,178.248 109.5,174.5C 113.167,172.5 116.833,170.5 120.5,168.5 Z"/></g>
<g><path style="opacity:0.671" fill="#c1c2c2" d="M 324.5,172.5 C 326.439,176.434 328.772,180.101 331.5,183.5C 328.339,181.171 325.673,178.338 323.5,175C 321.902,173.274 322.235,172.441 324.5,172.5 Z"/></g>
<g><path style="opacity:0.804" fill="#bbbcbd" d="M 331.5,183.5 C 336.061,188.75 339.394,194.75 341.5,201.5C 338.109,197.072 334.942,192.406 332,187.5C 331.51,186.207 331.343,184.873 331.5,183.5 Z"/></g>
<g><path style="opacity:1" fill="#f59eb1" d="M 84.5,220.5 C 80.8333,219.5 78.5,217.167 77.5,213.5C 77.5743,211.589 78.5743,210.422 80.5,210C 84.4862,209.501 88.4862,209.334 92.5,209.5C 92.0301,214.776 89.3634,218.443 84.5,220.5 Z"/></g>
<g><path style="opacity:0.999" fill="#f79eb2" d="M 346.5,222.5 C 351.405,223.572 356.405,224.238 361.5,224.5C 364.428,224.565 367.095,225.232 369.5,226.5C 373.307,229.207 377.64,230.54 382.5,230.5C 386.901,231.406 390.901,233.072 394.5,235.5C 397.327,238.752 400.993,240.752 405.5,241.5C 408.089,242.419 410.089,244.086 411.5,246.5C 412.785,248.452 414.451,250.118 416.5,251.5C 417.906,251.973 418.573,252.973 418.5,254.5C 420.928,261.548 420.928,268.548 418.5,275.5C 414.617,280.454 409.617,283.954 403.5,286C 396.01,288.623 388.344,290.456 380.5,291.5C 375.234,291.189 370.234,291.855 365.5,293.5C 365.167,293.5 364.833,293.5 364.5,293.5C 346.83,293.667 329.164,293.5 311.5,293C 314.365,292.817 317.031,292.317 319.5,291.5C 320.167,291.5 320.833,291.5 321.5,291.5C 327.051,291.473 332.384,290.806 337.5,289.5C 354.138,287.138 370.471,283.304 386.5,278C 404.932,270.645 406.265,260.978 390.5,249C 376.688,241.674 362.022,236.841 346.5,234.5C 346.5,230.5 346.5,226.5 346.5,222.5 Z"/></g>
<g><path style="opacity:0.29" fill="#efd7dc" d="M 341.5,201.5 C 343.887,207.551 345.72,213.885 347,220.5C 351.975,221.655 356.808,222.988 361.5,224.5C 356.405,224.238 351.405,223.572 346.5,222.5C 344.452,215.592 342.785,208.592 341.5,201.5 Z"/></g>
<g><path style="opacity:0.588" fill="#d0d0d1" d="M 134.5,225.5 C 137.427,226.757 139.761,228.757 141.5,231.5C 138.573,230.243 136.239,228.243 134.5,225.5 Z"/></g>
<g><path style="opacity:0.627" fill="#faced7" d="M 369.5,226.5 C 374.165,227.078 378.499,228.411 382.5,230.5C 377.64,230.54 373.307,229.207 369.5,226.5 Z"/></g>
<g><path style="opacity:1" fill="#515154" d="M 163.5,266.5 C 156.745,267.123 150.412,266.456 144.5,264.5C 144.66,262.847 145.326,261.514 146.5,260.5C 148.851,258.159 149.851,255.159 149.5,251.5C 149.5,251.167 149.5,250.833 149.5,250.5C 151.59,245.871 153.09,240.204 154,233.5C 158.554,236.118 162.554,239.452 166,243.5C 171.384,250.465 171.884,257.798 167.5,265.5C 166.311,266.429 164.978,266.762 163.5,266.5 Z"/></g>
<g><path style="opacity:0.58" fill="#fbd1da" d="M 394.5,235.5 C 398.655,236.742 402.322,238.742 405.5,241.5C 400.993,240.752 397.327,238.752 394.5,235.5 Z"/></g>
<g><path style="opacity:0.424" fill="#fcdfe5" d="M 411.5,246.5 C 414.167,247.167 415.833,248.833 416.5,251.5C 414.451,250.118 412.785,248.452 411.5,246.5 Z"/></g>
<g><path style="opacity:1" fill="#505053" d="M 284.5,266.5 C 283.833,266.5 283.5,266.833 283.5,267.5C 283.167,267.5 282.833,267.5 282.5,267.5C 281.833,267.5 281.167,267.5 280.5,267.5C 272.684,266.508 264.684,266.174 256.5,266.5C 257.36,262.566 257.693,258.566 257.5,254.5C 265.935,254.26 274.268,253.26 282.5,251.5C 284.197,252.364 285.363,253.697 286,255.5C 286.987,259.475 286.487,263.141 284.5,266.5 Z"/></g>
<g><path style="opacity:0.824" fill="#a8a8a9" d="M 149.5,251.5 C 149.851,255.159 148.851,258.159 146.5,260.5C 147.331,257.341 148.331,254.341 149.5,251.5 Z"/></g>
<g><path style="opacity:0.322" fill="#e1e1e2" d="M 203.5,252.5 C 204.491,255.244 204.157,257.911 202.5,260.5C 202.401,257.763 202.735,255.096 203.5,252.5 Z"/></g>
<g><path style="opacity:0.594" fill="#fbd3db" d="M 418.5,254.5 C 422.445,259.95 423.278,265.95 421,272.5C 420.623,273.942 419.79,274.942 418.5,275.5C 420.928,268.548 420.928,261.548 418.5,254.5 Z"/></g>
<g><path style="opacity:1" fill="#c37f8c" d="M 144.5,264.5 C 150.412,266.456 156.745,267.123 163.5,266.5C 165.292,267.309 167.292,267.809 169.5,268C 168.584,268.278 167.918,268.778 167.5,269.5C 163.723,271.722 159.723,273.389 155.5,274.5C 153.302,274.12 151.635,274.787 150.5,276.5C 150.5,277.167 150.167,277.5 149.5,277.5C 148.167,278.167 146.833,278.833 145.5,279.5C 144.732,278.737 144.232,277.737 144,276.5C 143.617,277.056 143.117,277.389 142.5,277.5C 141.178,277.33 140.011,277.663 139,278.5C 138.701,275.202 137.867,274.868 136.5,277.5C 136.5,277.833 136.5,278.167 136.5,278.5C 135.504,278.586 134.671,278.252 134,277.5C 133.333,275.833 133.333,274.167 134,272.5C 136.74,271.101 139.24,269.434 141.5,267.5C 142.272,266.306 143.272,265.306 144.5,264.5 Z"/></g>
<g><path style="opacity:0.999" fill="#c27f8c" d="M 254.5,266.5 C 255.167,266.5 255.833,266.5 256.5,266.5C 264.684,266.174 272.684,266.508 280.5,267.5C 277.833,269.5 275.167,271.5 272.5,273.5C 269.311,273.858 266.311,274.525 263.5,275.5C 262.833,275.833 262.167,276.167 261.5,276.5C 260.18,277.942 258.514,278.608 256.5,278.5C 256.5,278.167 256.5,277.833 256.5,277.5C 256.631,276.761 256.464,276.094 256,275.5C 254.989,276.337 253.822,276.67 252.5,276.5C 252.598,279.248 251.598,279.914 249.5,278.5C 249.5,278.167 249.5,277.833 249.5,277.5C 250.463,276.637 250.463,275.97 249.5,275.5C 248.264,276.246 246.93,276.579 245.5,276.5C 245.517,274.435 245.85,272.435 246.5,270.5C 248.651,268.282 251.318,266.948 254.5,266.5 Z"/></g>
<g><path style="opacity:1" fill="#f6a0b3" d="M 167.5,269.5 C 176.167,269.5 184.833,269.5 193.5,269.5C 187.871,274.645 181.204,277.645 173.5,278.5C 171.685,279.63 169.685,280.296 167.5,280.5C 167.5,280.167 167.5,279.833 167.5,279.5C 167.631,278.761 167.464,278.094 167,277.5C 165.989,278.337 164.822,278.67 163.5,278.5C 163.719,279.675 163.386,280.675 162.5,281.5C 161.719,280.271 161.219,278.938 161,277.5C 159.961,278.244 159.461,279.244 159.5,280.5C 155.932,280.241 154.599,278.241 155.5,274.5C 159.723,273.389 163.723,271.722 167.5,269.5 Z"/></g>
<g><path style="opacity:0.993" fill="#f7a3b5" d="M 284.5,269.5 C 293.5,269.5 302.5,269.5 311.5,269.5C 306.083,275.033 299.417,278.2 291.5,279C 289.878,286.06 287.711,286.227 285,279.5C 283.833,281.167 282.667,282.833 281.5,284.5C 279.803,283.636 278.637,282.303 278,280.5C 277.252,282.332 276.252,283.999 275,285.5C 274.536,284.906 274.369,284.239 274.5,283.5C 272.186,274.51 275.52,269.843 284.5,269.5 Z"/></g>
<g><path style="opacity:0.137" fill="#f6dadf" d="M 280.5,267.5 C 281.167,267.5 281.833,267.5 282.5,267.5C 282.833,268.833 283.167,268.833 283.5,267.5C 283.833,267.5 284.167,267.5 284.5,267.5C 284.5,268.167 284.5,268.833 284.5,269.5C 275.52,269.843 272.186,274.51 274.5,283.5C 272.729,280.241 272.062,276.908 272.5,273.5C 275.167,271.5 277.833,269.5 280.5,267.5 Z"/></g>
<g><path style="opacity:0.667" fill="#e3c1c7" d="M 246.5,270.5 C 245.85,272.435 245.517,274.435 245.5,276.5C 246.93,276.579 248.264,276.246 249.5,275.5C 250.463,275.97 250.463,276.637 249.5,277.5C 247.864,278.749 246.697,280.416 246,282.5C 242.551,278.21 242.718,274.21 246.5,270.5 Z"/></g>
<g><path style="opacity:0.006" fill="#f6ebed" d="M 272.5,273.5 C 269.877,275.265 266.877,275.932 263.5,275.5C 266.311,274.525 269.311,273.858 272.5,273.5 Z"/></g>
<g><path style="opacity:0.537" fill="#e7cacf" d="M 141.5,267.5 C 139.24,269.434 136.74,271.101 134,272.5C 133.333,274.167 133.333,275.833 134,277.5C 134.671,278.252 135.504,278.586 136.5,278.5C 136.013,279.473 135.513,280.473 135,281.5C 134.346,282.696 133.846,282.696 133.5,281.5C 130.091,273.145 132.758,268.479 141.5,267.5 Z"/></g>
<g><path style="opacity:0.8" fill="#fbd2db" d="M 167.5,279.5 C 165.567,280.642 164.067,282.308 163,284.5C 161.595,283.269 160.429,281.936 159.5,280.5C 159.461,279.244 159.961,278.244 161,277.5C 161.219,278.938 161.719,280.271 162.5,281.5C 163.386,280.675 163.719,279.675 163.5,278.5C 164.822,278.67 165.989,278.337 167,277.5C 167.464,278.094 167.631,278.761 167.5,279.5 Z"/></g>
<g><path style="opacity:0.576" fill="#e5c5cb" d="M 261.5,276.5 C 261.005,278.482 260.505,280.482 260,282.5C 257.929,281.897 256.762,280.564 256.5,278.5C 258.514,278.608 260.18,277.942 261.5,276.5 Z"/></g>
<g><path style="opacity:0.659" fill="#e1bcc3" d="M 142.5,277.5 C 141.426,283.392 139.426,283.392 136.5,277.5C 137.867,274.868 138.701,275.202 139,278.5C 140.011,277.663 141.178,277.33 142.5,277.5 Z"/></g>
<g><path style="opacity:0.204" fill="#ecd4d9" d="M 149.5,277.5 C 149.108,279.179 148.608,280.846 148,282.5C 146.583,281.922 145.75,280.922 145.5,279.5C 146.833,278.833 148.167,278.167 149.5,277.5 Z"/></g>
<g><path style="opacity:0.624" fill="#fadfe5" d="M 155.5,274.5 C 154.599,278.241 155.932,280.241 159.5,280.5C 158.928,281.973 158.095,283.307 157,284.5C 155.402,281.702 154.235,278.702 153.5,275.5C 152.583,276.127 151.583,276.461 150.5,276.5C 151.635,274.787 153.302,274.12 155.5,274.5 Z"/></g>
<g><path style="opacity:0.435" fill="#fcdce3" d="M 173.5,278.5 C 172.509,280.482 171.509,282.482 170.5,284.5C 168.712,283.717 167.712,282.384 167.5,280.5C 169.685,280.296 171.685,279.63 173.5,278.5 Z"/></g>
<g><path style="opacity:0.008" fill="#ecd3d7" d="M 256.5,277.5 C 255.504,277.414 254.671,277.748 254,278.5C 252.82,283.519 251.32,283.519 249.5,278.5C 251.598,279.914 252.598,279.248 252.5,276.5C 253.822,276.67 254.989,276.337 256,275.5C 256.464,276.094 256.631,276.761 256.5,277.5 Z"/></g>
<g><path style="opacity:0.816" fill="#fbcdd7" d="M 337.5,289.5 C 332.384,290.806 327.051,291.473 321.5,291.5C 326.598,290.043 331.931,289.376 337.5,289.5 Z"/></g>
<g><path style="opacity:0.255" fill="#fce2e8" d="M 380.5,291.5 C 375.71,292.725 370.71,293.392 365.5,293.5C 370.234,291.855 375.234,291.189 380.5,291.5 Z"/></g>
<g><path style="opacity:0.87" fill="#f9b5c3" d="M 319.5,291.5 C 317.031,292.317 314.365,292.817 311.5,293C 329.164,293.5 346.83,293.667 364.5,293.5C 360.702,294.483 356.702,294.817 352.5,294.5C 333.659,294.83 314.993,294.497 296.5,293.5C 304.133,292.503 311.799,291.837 319.5,291.5 Z"/></g>
<g><path style="opacity:0.671" fill="#fbd8e0" d="M 296.5,293.5 C 314.993,294.497 333.659,294.83 352.5,294.5C 330.983,296.88 309.316,296.88 287.5,294.5C 290.428,293.516 293.428,293.183 296.5,293.5 Z"/></g>
</svg>
