<svg xmlns="http://www.w3.org/2000/svg" xmlns:xlink="http://www.w3.org/1999/xlink" width="500" zoomAndPan="magnify" viewBox="0 0 375 374.999991" height="500" preserveAspectRatio="xMidYMid meet" version="1.0"><defs><clipPath id="f0a9b3b54c"><path d="M 57.1875 100 L 261 100 L 261 194 L 57.1875 194 Z M 57.1875 100 " clip-rule="nonzero"/></clipPath><clipPath id="ad82807c0b"><path d="M 109.414062 119 L 124.664062 119 L 124.664062 132.964844 L 109.414062 132.964844 Z M 109.414062 119 " clip-rule="nonzero"/></clipPath><clipPath id="b7c043fdd5"><path d="M 125.316406 115.242188 C 129.441406 113.832031 133.515625 112.300781 137.519531 110.558594 C 146.886719 106.484375 158.425781 99.917969 168.988281 100.617188 L 167.769531 105.980469 C 167.769531 105.980469 185.058594 97.695312 205.273438 103.296875 L 203.082031 106.222656 C 203.082031 106.222656 228.410156 109.632812 247.40625 128.878906 L 242.289062 130.101562 C 242.289062 130.101562 261.476562 146.6875 260.066406 173.464844 C 259.339844 187.351562 259.339844 187.351562 259.339844 187.351562 L 254.464844 181.507812 C 254.464844 181.507812 255.929688 189.058594 252.519531 193.199219 L 247.890625 187.597656 L 243.75 191.980469 L 230.113281 186.132812 C 230.113281 186.132812 205.761719 191.980469 179.460938 191.980469 C 153.15625 191.980469 115.894531 175.902344 115.894531 175.902344 L 114.4375 182.96875 C 114.4375 182.96875 102.746094 168.347656 97.632812 167.863281 C 92.515625 167.375 64.511719 174.683594 57.691406 159.089844 L 77.90625 142.039062 C 78.449219 141.578125 78.835938 138.550781 79.179688 137.800781 C 80.820312 134.183594 83.589844 131.171875 86.78125 128.851562 C 91.703125 125.269531 97.5625 123.652344 103.316406 121.96875 C 110.664062 119.816406 118.058594 117.722656 125.316406 115.242188 Z M 125.316406 115.242188 " clip-rule="nonzero"/></clipPath><clipPath id="63d2fc2b75"><path d="M 57.3125 126 L 132.925781 126 L 132.925781 171 L 57.3125 171 Z M 57.3125 126 " clip-rule="nonzero"/></clipPath><clipPath id="9de52fa1e7"><path d="M 125.316406 115.242188 C 129.441406 113.832031 133.515625 112.300781 137.519531 110.558594 C 146.886719 106.484375 158.425781 99.917969 168.988281 100.617188 L 167.769531 105.980469 C 167.769531 105.980469 185.058594 97.695312 205.273438 103.296875 L 203.082031 106.222656 C 203.082031 106.222656 228.410156 109.632812 247.40625 128.878906 L 242.289062 130.101562 C 242.289062 130.101562 261.476562 146.6875 260.066406 173.464844 C 259.339844 187.351562 259.339844 187.351562 259.339844 187.351562 L 254.464844 181.507812 C 254.464844 181.507812 255.929688 189.058594 252.519531 193.199219 L 247.890625 187.597656 L 243.75 191.980469 L 230.113281 186.132812 C 230.113281 186.132812 205.761719 191.980469 179.460938 191.980469 C 153.15625 191.980469 115.894531 175.902344 115.894531 175.902344 L 114.4375 182.96875 C 114.4375 182.96875 102.746094 168.347656 97.632812 167.863281 C 92.515625 167.375 64.511719 174.683594 57.691406 159.089844 L 77.90625 142.039062 C 78.449219 141.578125 78.835938 138.550781 79.179688 137.800781 C 80.820312 134.183594 83.589844 131.171875 86.78125 128.851562 C 91.703125 125.269531 97.5625 123.652344 103.316406 121.96875 C 110.664062 119.816406 118.058594 117.722656 125.316406 115.242188 Z M 125.316406 115.242188 " clip-rule="nonzero"/></clipPath><clipPath id="6c644fc330"><path d="M 57.3125 157.121094 L 70.019531 157.121094 L 70.019531 167 L 57.3125 167 Z M 57.3125 157.121094 " clip-rule="nonzero"/></clipPath><clipPath id="59837d5dcc"><path d="M 125.316406 115.242188 C 129.441406 113.832031 133.515625 112.300781 137.519531 110.558594 C 146.886719 106.484375 158.425781 99.917969 168.988281 100.617188 L 167.769531 105.980469 C 167.769531 105.980469 185.058594 97.695312 205.273438 103.296875 L 203.082031 106.222656 C 203.082031 106.222656 228.410156 109.632812 247.40625 128.878906 L 242.289062 130.101562 C 242.289062 130.101562 261.476562 146.6875 260.066406 173.464844 C 259.339844 187.351562 259.339844 187.351562 259.339844 187.351562 L 254.464844 181.507812 C 254.464844 181.507812 255.929688 189.058594 252.519531 193.199219 L 247.890625 187.597656 L 243.75 191.980469 L 230.113281 186.132812 C 230.113281 186.132812 205.761719 191.980469 179.460938 191.980469 C 153.15625 191.980469 115.894531 175.902344 115.894531 175.902344 L 114.4375 182.96875 C 114.4375 182.96875 102.746094 168.347656 97.632812 167.863281 C 92.515625 167.375 64.511719 174.683594 57.691406 159.089844 L 77.90625 142.039062 C 78.449219 141.578125 78.835938 138.550781 79.179688 137.800781 C 80.820312 134.183594 83.589844 131.171875 86.78125 128.851562 C 91.703125 125.269531 97.5625 123.652344 103.316406 121.96875 C 110.664062 119.816406 118.058594 117.722656 125.316406 115.242188 Z M 125.316406 115.242188 " clip-rule="nonzero"/></clipPath></defs><rect x="-37.5" width="450" fill="#ffffff" y="-37.499999" height="449.999989" fill-opacity="1"/><rect x="-37.5" width="450" fill="#ffffff" y="-37.499999" height="449.999989" fill-opacity="1"/><rect x="-37.5" width="450" fill="#ffffff" y="-37.499999" height="449.999989" fill-opacity="1"/><path fill="#505053" d="M 167.292969 174.207031 C 167.292969 174.207031 203.738281 184.683594 190.832031 201.003906 L 211.777344 201.003906 C 211.777344 201.003906 225.171875 195.402344 217.378906 182.246094 L 167.292969 174.207031 " fill-opacity="1" fill-rule="nonzero"/><path fill="#505053" d="M 107.308594 167.417969 C 107.308594 167.417969 120.019531 184.683594 107.109375 201.003906 L 128.054688 201.003906 C 128.054688 201.003906 141.449219 195.402344 133.652344 182.246094 L 107.308594 167.417969 " fill-opacity="1" fill-rule="nonzero"/><path fill="#f697ac" d="M 249.460938 164.660156 C 249.460938 164.660156 316.9375 171.828125 316.9375 200.03125 C 316.9375 228.226562 214.726562 221.316406 214.726562 221.316406 C 214.726562 221.316406 302.160156 217.304688 302.160156 198.542969 C 302.160156 179.777344 247 173.433594 247 173.433594 L 249.460938 164.660156 " fill-opacity="1" fill-rule="nonzero"/><path fill="#100f0d" d="M 95.347656 129.324219 C 95.347656 129.324219 89.460938 118.386719 80.910156 121.894531 C 80.910156 121.894531 79.371094 131.429688 86.097656 134.09375 L 95.347656 129.324219 " fill-opacity="1" fill-rule="nonzero"/><g clip-path="url(#f0a9b3b54c)"><path fill="#797a7c" d="M 125.316406 115.242188 C 129.441406 113.832031 133.515625 112.300781 137.519531 110.558594 C 146.886719 106.484375 158.425781 99.917969 168.988281 100.617188 L 167.769531 105.980469 C 167.769531 105.980469 185.058594 97.695312 205.273438 103.296875 L 203.082031 106.222656 C 203.082031 106.222656 228.410156 109.632812 247.40625 128.878906 L 242.289062 130.101562 C 242.289062 130.101562 261.476562 146.6875 260.066406 173.464844 C 259.339844 187.351562 259.339844 187.351562 259.339844 187.351562 L 254.464844 181.507812 C 254.464844 181.507812 255.929688 189.058594 252.519531 193.199219 L 247.890625 187.597656 L 243.75 191.980469 L 230.113281 186.132812 C 230.113281 186.132812 205.761719 191.980469 179.460938 191.980469 C 153.15625 191.980469 115.894531 175.902344 115.894531 175.902344 L 114.4375 182.96875 C 114.4375 182.96875 102.746094 168.347656 97.632812 167.863281 C 92.515625 167.375 64.511719 174.683594 57.691406 159.089844 L 77.90625 142.039062 C 78.449219 141.578125 78.835938 138.550781 79.179688 137.800781 C 80.820312 134.183594 83.589844 131.171875 86.78125 128.851562 C 91.703125 125.269531 97.5625 123.652344 103.316406 121.96875 C 110.664062 119.816406 118.058594 117.722656 125.316406 115.242188 " fill-opacity="1" fill-rule="nonzero"/></g><g clip-path="url(#ad82807c0b)"><g clip-path="url(#b7c043fdd5)"><path fill="#100f0d" d="M 109.582031 127.628906 C 109.582031 127.628906 115.472656 116.691406 124.019531 120.199219 C 124.019531 120.199219 125.566406 129.730469 118.832031 132.398438 L 109.582031 127.628906 " fill-opacity="1" fill-rule="nonzero"/></g></g><g clip-path="url(#63d2fc2b75)"><g clip-path="url(#9de52fa1e7)"><path fill="#dcdbd9" d="M 92.816406 134.164062 C 92.816406 134.164062 93.664062 127.476562 91.441406 126.628906 C 90.644531 126.328125 89.808594 126.925781 88.910156 127.457031 C 83.28125 130.800781 80.441406 128.394531 76.941406 131.210938 C 74.820312 132.914062 75.828125 133.824219 72.476562 138.933594 C 70.53125 141.902344 68.777344 143.75 67.507812 145.148438 C 64.734375 148.199219 60.582031 153.144531 54.648438 161.375 C 57.089844 163.957031 59.53125 166.535156 61.976562 169.117188 C 61.976562 169.117188 85.234375 170.070312 97.632812 167.863281 C 110.027344 165.652344 118.78125 170.539062 118.78125 170.539062 C 118.78125 170.539062 120.019531 167.488281 116.855469 164.433594 L 124.484375 167.417969 C 124.484375 167.417969 126.722656 162.597656 122.652344 159.339844 L 130.988281 161.375 C 130.988281 161.375 131.203125 154.042969 125.09375 150.988281 L 132.683594 148.816406 C 131.796875 134.320312 120.167969 127.164062 109.621094 126.550781 C 100.699219 126.03125 94.121094 132.773438 92.816406 134.164062 " fill-opacity="1" fill-rule="nonzero"/></g></g><g clip-path="url(#6c644fc330)"><g clip-path="url(#59837d5dcc)"><path fill="#f697ac" d="M 57.691406 159.089844 C 57.691406 159.089844 64.023438 156.203125 68.769531 157.476562 C 73.515625 158.75 63.230469 166.976562 63.230469 166.976562 L 59.046875 162.921875 L 57.691406 159.089844 " fill-opacity="1" fill-rule="nonzero"/></g></g><path fill="#797a7c" d="M 115.894531 175.902344 C 115.894531 175.902344 137.085938 186.378906 124.175781 202.699219 L 145.121094 202.699219 C 145.121094 202.699219 158.515625 197.097656 150.722656 183.941406 L 115.894531 175.902344 " fill-opacity="1" fill-rule="nonzero"/><path fill="#f697ac" d="M 145.121094 202.699219 C 137.140625 207.589844 136.464844 208.269531 132.394531 208.269531 C 128.324219 208.269531 128.832031 213.867188 128.832031 213.867188 C 128.832031 213.867188 125.101562 212.03125 126.289062 208.285156 C 126.289062 208.285156 123.066406 210.476562 123.238281 213.867188 C 123.238281 213.867188 119.84375 211.863281 121.203125 208.285156 C 121.203125 208.285156 118.148438 211.832031 118.320312 214.546875 C 117.90625 213.710938 115.578125 208.824219 117.8125 205.554688 C 119.214844 203.503906 121.773438 203.027344 124.175781 202.699219 C 128.648438 202.101562 135.667969 201.609375 145.121094 202.699219 " fill-opacity="1" fill-rule="nonzero"/><path fill="#c47c8a" d="M 128.054688 201.003906 C 120.074219 205.894531 119.398438 206.574219 115.328125 206.574219 C 111.257812 206.574219 111.765625 212.171875 111.765625 212.171875 C 111.765625 212.171875 108.035156 210.335938 109.222656 206.589844 C 109.222656 206.589844 106 208.78125 106.167969 212.171875 C 106.167969 212.171875 102.777344 210.167969 104.136719 206.589844 C 104.136719 206.589844 101.082031 210.136719 101.25 212.851562 C 100.839844 212.015625 98.511719 207.128906 100.742188 203.859375 C 102.144531 201.808594 104.707031 201.332031 107.109375 201.003906 C 111.582031 200.402344 118.601562 199.914062 128.054688 201.003906 " fill-opacity="1" fill-rule="nonzero"/><path fill="#797a7c" d="M 189.332031 175.902344 C 189.332031 175.902344 225.78125 186.378906 212.875 202.699219 L 233.816406 202.699219 C 233.816406 202.699219 247.210938 197.097656 239.421875 183.941406 L 189.332031 175.902344 " fill-opacity="1" fill-rule="nonzero"/><path fill="#f697ac" d="M 233.816406 202.699219 C 225.839844 207.589844 225.160156 208.269531 221.089844 208.269531 C 217.023438 208.269531 217.527344 213.867188 217.527344 213.867188 C 217.527344 213.867188 213.796875 212.03125 214.988281 208.285156 C 214.988281 208.285156 211.761719 210.476562 211.933594 213.867188 C 211.933594 213.867188 208.542969 211.863281 209.898438 208.285156 C 209.898438 208.285156 206.847656 211.832031 207.015625 214.546875 C 206.601562 213.710938 204.273438 208.824219 206.507812 205.554688 C 207.910156 203.503906 210.46875 203.027344 212.875 202.699219 C 217.34375 202.101562 224.367188 201.609375 233.816406 202.699219 " fill-opacity="1" fill-rule="nonzero"/><path fill="#c47c8a" d="M 211.777344 201.003906 C 203.796875 205.894531 203.117188 206.574219 199.050781 206.574219 C 194.980469 206.574219 195.488281 212.171875 195.488281 212.171875 C 195.488281 212.171875 191.757812 210.335938 192.945312 206.589844 C 192.945312 206.589844 189.722656 208.78125 189.890625 212.171875 C 189.890625 212.171875 186.5 210.167969 187.855469 206.589844 C 187.855469 206.589844 184.804688 210.136719 184.976562 212.851562 C 184.5625 212.015625 182.230469 207.128906 184.464844 203.859375 C 185.867188 201.808594 188.425781 201.332031 190.832031 201.003906 C 195.304688 200.402344 202.328125 199.914062 211.777344 201.003906 " fill-opacity="1" fill-rule="nonzero"/></svg>